<svg width="179" height="32" viewBox="0 0 179 32" fill="none" xmlns="http://www.w3.org/2000/svg">
<path d="M30.6283 14.2844C30.6682 12.684 30.3435 11.0954 29.6788 9.63872C29.0141 8.182 27.9253 6.89516 26.6898 5.87535C24.3311 4.02899 21.4731 2.93015 18.4837 2.72031C17.6522 1.87276 16.6627 1.19583 15.571 0.727659C14.2952 0.255507 12.9412 -0.0307178 11.581 0.00262908C9.67249 0.00262908 8.31692 0.788469 7.81817 1.45269C7.76457 1.5123 7.72351 1.58206 7.69743 1.65783C7.67135 1.73361 7.66079 1.81384 7.66637 1.89377C7.67195 1.9737 7.69357 2.0517 7.72993 2.12312C7.76629 2.19454 7.81665 2.25793 7.87803 2.30953C8.64207 2.80781 9.28525 3.55483 9.70711 4.363V4.42278H9.64726C7.29554 5.67684 5.39424 7.4297 4.03526 9.72052C2.67627 12.0113 1.97259 14.6306 2.00082 17.2933C1.98424 19.3142 2.35908 21.3193 3.10471 23.1982C3.81137 24.9483 4.73383 26.5319 6.08815 27.8477C7.45681 29.1697 9.08165 30.1981 10.8628 30.8699C12.7755 31.5879 14.8028 32.0193 16.846 31.9993C19.506 31.9993 20.2249 30.9149 20.2757 30.8541C20.3264 30.7933 20.3873 30.4588 19.9611 30.4892C19.5349 30.5196 19.4741 30.5297 18.8449 30.4487C18.2158 30.3676 15.6866 29.7899 15.608 26.8405C15.5916 26.2257 15.6921 25.6793 15.9208 25.1082C16.1495 24.5371 16.4926 24.0187 16.929 23.5848C16.9779 23.5388 17.0132 23.4802 17.031 23.4155C17.0488 23.3508 17.0484 23.2824 17.0299 23.2179C17.0113 23.1534 16.9753 23.0953 16.9259 23.0498C16.8764 23.0044 16.8154 22.9735 16.7494 22.9604C16.4999 22.9104 16.2459 22.8859 15.9913 22.8874C14.9972 22.9264 14.3235 23.3314 13.6294 24.0432C12.9799 24.7092 12.6039 25.9486 12.5944 26.6885C12.5848 27.4284 12.6478 28.1794 13.1516 29.0063C12.1835 28.3111 11.326 26.1686 11.0926 23.9758C10.8592 21.7831 11.6843 19.662 12.848 18.5196C14.0295 17.3842 15.5617 16.7154 17.2011 16.7358C18.1504 16.6935 19.0893 16.8347 19.9606 17.2135C20.8319 17.5922 21.6659 18.1647 22.2819 18.8874C23.1853 20.017 23.8092 21.4086 24.0116 22.8402C24.1446 23.7435 24.3374 24.6269 25.0357 24.6269C25.203 24.6145 25.366 24.568 25.5147 24.4903C25.6633 24.4127 25.7945 24.3054 25.9002 24.1753C26.1717 23.8511 26.3762 23.4764 26.5018 23.0728C26.6274 22.6692 26.6715 22.2447 26.6317 21.8239C26.6317 21.7376 26.6317 21.6446 26.6317 21.5317V21.4852H26.6716C27.4926 21.0143 28.2223 20.3596 28.8262 19.6313C30.0389 18.1168 30.6771 16.2231 30.6283 14.2844ZM26.6051 17.7981C26.3522 18.1011 26.0642 18.4136 25.7472 18.649L25.6807 18.6955L25.6408 18.629C25.1595 17.8386 24.4744 17.0745 23.8037 16.4364C22.0142 14.7737 19.6576 13.8544 17.2136 13.8659C16.0182 13.8444 14.8306 14.0633 13.7217 14.5097C12.6128 14.9562 11.6051 15.6209 10.7588 16.4644C9.91243 17.3079 9.38673 18.3129 8.93734 19.4196C8.48795 20.5262 8.26612 21.7119 8.28505 22.9059C8.31481 24.7831 8.45923 25.2362 8.91015 26.5333C8.71065 26.3606 4.85133 23.6245 4.84701 17.2933C4.8336 14.93 5.52839 12.6167 6.842 10.6511C8.12293 8.76067 9.89046 7.28724 12.0017 6.41337C12.4888 6.21464 12.986 6.04171 13.4913 5.89528C13.1032 4.70665 12.4507 3.6212 11.5828 2.72031C12.6963 2.54432 13.7357 2.71358 14.7499 3.20528C15.7642 3.69698 16.6844 4.52801 17.2349 5.51072L17.8068 5.55057C20.3945 5.62898 22.8122 6.47072 24.8743 8.03406C25.7889 8.78676 26.6193 9.73964 27.1059 10.8189C27.5926 11.8982 27.8239 13.0749 27.7821 14.2578C27.8268 15.5406 27.4091 16.7968 26.6051 17.7981Z" fill="url(#paint0_radial)"/>
<path d="M50.3184 23.2441C53.873 23.2441 56.002 21.5254 56.002 18.8203V18.8105C56.002 16.5938 54.6738 15.3926 51.7246 14.8066L50.2305 14.5039C48.6094 14.1816 47.8867 13.6641 47.8867 12.7754V12.7656C47.8867 11.7598 48.7949 11.0664 50.3086 11.0566C51.7637 11.0566 52.7793 11.7305 52.9258 12.834L52.9355 12.9512H55.7188L55.709 12.7656C55.5723 10.2949 53.5703 8.66406 50.3086 8.66406C47.1836 8.66406 44.9375 10.3633 44.9375 12.9414V12.9512C44.9375 15.0703 46.3438 16.3984 49.127 16.9551L50.6113 17.248C52.3594 17.6094 53.0527 18.0879 53.0527 19.0449V19.0547C53.0527 20.1289 52.0273 20.8418 50.3965 20.8418C48.7852 20.8418 47.623 20.1582 47.4375 19.0645L47.418 18.957H44.6348L44.6445 19.1133C44.8105 21.7109 46.9688 23.2441 50.3184 23.2441ZM59.0488 11.1836C59.9082 11.1836 60.5723 10.5098 60.5723 9.69922C60.5723 8.88867 59.9082 8.21484 59.0488 8.21484C58.1895 8.21484 57.5254 8.88867 57.5254 9.69922C57.5254 10.5098 58.1895 11.1836 59.0488 11.1836ZM57.623 23H60.4746V12.5312H57.623V23ZM62.3887 23H65.2402V16.6816C65.2402 15.5 65.9727 14.6797 67.0566 14.6797C68.1113 14.6797 68.7461 15.3438 68.7461 16.4668V23H71.4902V16.6328C71.4902 15.4707 72.2031 14.6797 73.2871 14.6797C74.3906 14.6797 74.9961 15.3438 74.9961 16.5547V23H77.8477V15.8418C77.8477 13.7324 76.4707 12.3164 74.4199 12.3164C72.8867 12.3164 71.6367 13.1562 71.168 14.4746H71.1094C70.7578 13.0977 69.6934 12.3164 68.2285 12.3164C66.8223 12.3164 65.7285 13.0977 65.2988 14.2891H65.2402V12.5312H62.3887V23ZM82.7695 23.166C84.1465 23.166 85.2598 22.5117 85.8555 21.4375H85.9141V23H88.7656V15.8223C88.7656 13.7129 87.0176 12.3164 84.3125 12.3164C81.5488 12.3164 79.8887 13.7031 79.7324 15.6367L79.7227 15.7539H82.3301L82.3496 15.666C82.4863 14.9922 83.1309 14.4941 84.1953 14.4941C85.3086 14.4941 85.9141 15.0703 85.9141 15.998V16.6426L83.3262 16.7988C80.7285 16.9648 79.2539 18.0781 79.2539 19.9824V20.002C79.2539 21.8477 80.6699 23.166 82.7695 23.166ZM82.0762 19.8555V19.8359C82.0762 19.0938 82.6523 18.625 83.7559 18.5566L85.9141 18.4199V19.1719C85.9141 20.2656 84.9766 21.0859 83.6973 21.0859C82.7109 21.0859 82.0762 20.627 82.0762 19.8555ZM93.9219 23H97.0176L98.082 19.582H103.062L104.127 23H107.223L102.311 8.9082H98.8438L93.9219 23ZM100.543 11.6426H100.602L102.379 17.375H98.7656L100.543 11.6426ZM108.424 23H111.275V16.9844C111.275 15.6172 112.086 14.6797 113.365 14.6797C114.645 14.6797 115.289 15.4609 115.289 16.8281V23H118.141V16.2422C118.141 13.791 116.832 12.3164 114.527 12.3164C112.945 12.3164 111.871 13.0488 111.334 14.25H111.275V12.5312H108.424V23ZM123.062 23.166C124.439 23.166 125.553 22.5117 126.148 21.4375H126.207V23H129.059V15.8223C129.059 13.7129 127.311 12.3164 124.605 12.3164C121.842 12.3164 120.182 13.7031 120.025 15.6367L120.016 15.7539H122.623L122.643 15.666C122.779 14.9922 123.424 14.4941 124.488 14.4941C125.602 14.4941 126.207 15.0703 126.207 15.998V16.6426L123.619 16.7988C121.021 16.9648 119.547 18.0781 119.547 19.9824V20.002C119.547 21.8477 120.963 23.166 123.062 23.166ZM122.369 19.8555V19.8359C122.369 19.0938 122.945 18.625 124.049 18.5566L126.207 18.4199V19.1719C126.207 20.2656 125.27 21.0859 123.99 21.0859C123.004 21.0859 122.369 20.627 122.369 19.8555ZM130.973 23H133.824V8.9082H130.973V23ZM137.389 26.4473C139.713 26.4473 141.119 25.6562 141.939 23.1855L145.533 12.5312H142.525L140.309 20.7148H140.23L138.023 12.5312H134.889L138.59 23L138.463 23.3418C138.209 24.0547 137.74 24.2988 136.891 24.2988C136.471 24.2988 136.139 24.2402 135.934 24.2012V26.3203C136.266 26.3789 136.832 26.4473 137.389 26.4473ZM150.689 23.2148C151.285 23.2148 151.744 23.1562 152.066 23.1074V21.0176C151.891 21.0371 151.705 21.0664 151.451 21.0664C150.592 21.0664 150.152 20.7344 150.152 19.7578V14.6797H152.066V12.5312H150.152V9.97266H147.271V12.5312H145.816V14.6797H147.271V20.0703C147.271 22.3164 148.365 23.2148 150.689 23.2148ZM155.123 11.1836C155.982 11.1836 156.646 10.5098 156.646 9.69922C156.646 8.88867 155.982 8.21484 155.123 8.21484C154.264 8.21484 153.6 8.88867 153.6 9.69922C153.6 10.5098 154.264 11.1836 155.123 11.1836ZM153.697 23H156.549V12.5312H153.697V23ZM163.248 23.2148C166.041 23.2148 167.848 21.4766 167.984 19.1914V19.1328H165.328L165.318 19.2207C165.123 20.2754 164.41 20.9785 163.268 20.9785C161.861 20.9785 160.982 19.8164 160.982 17.7656V17.7559C160.982 15.7539 161.861 14.5527 163.258 14.5527C164.439 14.5527 165.133 15.3145 165.309 16.3105L165.328 16.3984H167.975V16.3301C167.867 14.0645 166.061 12.3164 163.219 12.3164C160.084 12.3164 158.082 14.3965 158.082 17.7461V17.7559C158.082 21.1348 160.055 23.2148 163.248 23.2148ZM173.668 23.2148C176.363 23.2148 178.248 21.8672 178.248 19.8164V19.8066C178.248 18.2637 177.35 17.4043 175.162 16.9453L173.385 16.5645C172.33 16.3398 171.969 15.9883 171.969 15.4512V15.4414C171.969 14.7676 172.584 14.3281 173.57 14.3281C174.625 14.3281 175.24 14.8945 175.338 15.6465L175.348 15.7246H177.975V15.627C177.906 13.791 176.354 12.3164 173.57 12.3164C170.904 12.3164 169.186 13.6055 169.186 15.5977V15.6074C169.186 17.1699 170.211 18.1855 172.242 18.6152L174.02 18.9863C175.045 19.2109 175.396 19.5332 175.396 20.0898V20.0996C175.396 20.7734 174.742 21.1934 173.668 21.1934C172.525 21.1934 171.91 20.7148 171.725 19.8945L171.705 19.8066H168.922L168.932 19.8945C169.156 21.877 170.768 23.2148 173.668 23.2148Z" fill="url(#paint1_linear)"/>
<defs>
<radialGradient id="paint0_radial" cx="0" cy="0" r="1" gradientUnits="userSpaceOnUse" gradientTransform="translate(19.6308) rotate(105.108) scale(34.0099 30.042)">
<stop offset="0.285607" stop-color="#FCE19C"/>
<stop offset="0.43743" stop-color="#ECBD70"/>
<stop offset="1" stop-color="#8E6326"/>
</radialGradient>
<linearGradient id="paint1_linear" x1="113.388" y1="39.625" x2="113.388" y2="11.1" gradientUnits="userSpaceOnUse">
<stop stop-color="#D4A65D"/>
<stop offset="1" stop-color="#FDDC94"/>
</linearGradient>
</defs>
</svg>
