<svg width="134" height="20" viewBox="0 0 134 20" fill="none" xmlns="http://www.w3.org/2000/svg">
<path d="M49.242 15.168C48.3927 15.168 47.6647 15.0187 47.058 14.72C46.4607 14.4213 45.952 14.0433 45.532 13.586L46.932 12.172C47.2587 12.5453 47.6273 12.8253 48.038 13.012C48.458 13.1987 48.906 13.292 49.382 13.292C49.9047 13.292 50.292 13.1847 50.544 12.97C50.796 12.7553 50.922 12.4707 50.922 12.116C50.922 11.9387 50.8893 11.78 50.824 11.64C50.768 11.4907 50.656 11.3693 50.488 11.276C50.3293 11.1733 50.096 11.1033 49.788 11.066L48.822 10.94C48.1407 10.8467 47.576 10.6787 47.128 10.436C46.6893 10.184 46.3627 9.85733 46.148 9.456C45.9333 9.04533 45.826 8.56933 45.826 8.028C45.826 7.44 45.9707 6.92667 46.26 6.488C46.5587 6.04 46.9787 5.69 47.52 5.438C48.0707 5.186 48.7287 5.06 49.494 5.06C50.2313 5.06 50.88 5.18133 51.44 5.424C52 5.65733 52.4807 5.99333 52.882 6.432L51.468 7.86C51.2347 7.58933 50.95 7.37 50.614 7.202C50.2873 7.02467 49.872 6.936 49.368 6.936C48.892 6.936 48.5373 7.02 48.304 7.188C48.0707 7.356 47.954 7.58933 47.954 7.888C47.954 8.112 47.9913 8.294 48.066 8.434C48.15 8.574 48.276 8.68133 48.444 8.756C48.6213 8.83067 48.8453 8.89133 49.116 8.938L50.082 9.092C50.754 9.19467 51.3093 9.36733 51.748 9.61C52.1867 9.85267 52.5133 10.17 52.728 10.562C52.9427 10.954 53.05 11.43 53.05 11.99C53.05 12.6153 52.9007 13.166 52.602 13.642C52.3127 14.118 51.8833 14.4913 51.314 14.762C50.7447 15.0327 50.054 15.168 49.242 15.168ZM54.0163 15L57.2363 5.228H59.8683L63.0463 15H60.8343L60.1343 12.676H56.8723L56.1723 15H54.0163ZM57.3763 10.87H59.6163L58.5243 7.16H58.4543L57.3763 10.87ZM64.3983 15V5.228H66.6523L69.0463 9.806H69.0743L71.4403 5.228H73.7083V15H71.7063V8.588H71.6643L70.9503 10.016L69.0463 13.474L67.1843 10.03L66.4423 8.49H66.4003V15H64.3983ZM79.649 15.168C78.7157 15.168 77.969 15.0233 77.409 14.734C76.849 14.4353 76.443 13.978 76.191 13.362C75.939 12.746 75.813 11.9573 75.813 10.996V5.228H77.885V11.22C77.885 11.6773 77.941 12.06 78.053 12.368C78.1743 12.6667 78.3657 12.8953 78.627 13.054C78.8883 13.2033 79.229 13.278 79.649 13.278C80.069 13.278 80.405 13.2033 80.657 13.054C80.9183 12.8953 81.1097 12.6667 81.231 12.368C81.3523 12.06 81.413 11.6773 81.413 11.22V5.228H83.485V10.996C83.485 11.9573 83.359 12.746 83.107 13.362C82.855 13.978 82.449 14.4353 81.889 14.734C81.329 15.0233 80.5823 15.168 79.649 15.168ZM85.5897 15V5.228H90.2237C90.8304 5.228 91.3531 5.35867 91.7917 5.62C92.2304 5.88133 92.5711 6.24533 92.8137 6.712C93.0564 7.17867 93.1777 7.72467 93.1777 8.35C93.1777 9.00333 93.0284 9.582 92.7297 10.086C92.4404 10.5807 91.9971 10.94 91.3997 11.164L93.3177 15H90.9517L89.2437 11.416H87.7177V15H85.5897ZM87.7177 9.624H89.9577C90.1724 9.624 90.3544 9.58667 90.5037 9.512C90.6531 9.43733 90.7697 9.33 90.8537 9.19C90.9377 9.04067 90.9797 8.86333 90.9797 8.658V8.042C90.9797 7.82733 90.9377 7.65 90.8537 7.51C90.7697 7.37 90.6531 7.26267 90.5037 7.188C90.3544 7.11333 90.1724 7.076 89.9577 7.076H87.7177V9.624ZM94.2253 15L97.4453 5.228H100.077L103.255 15H101.043L100.343 12.676H97.0813L96.3813 15H94.2253ZM97.5853 10.87H99.8253L98.7333 7.16H98.6633L97.5853 10.87ZM104.229 15V13.306H105.489V6.922H104.229V5.228H108.877V6.922H107.617V13.306H108.877V15H104.229Z" fill="url(#paint0_linear_113_438)"/>
<g clip-path="url(#clip0_113_438)">
<path d="M36.8156 4.76296C36.6526 4.65634 36.4371 4.67718 36.2998 4.8154L33.9317 7.15616H26.0683L23.7002 4.8154C23.5628 4.67759 23.3477 4.65719 23.1843 4.76296C23.1055 4.81496 23.047 4.89257 23.0188 4.98269C22.9905 5.0728 22.9942 5.1699 23.0293 5.2576L24.6972 8.53885C24.7277 8.61499 24.7803 8.68025 24.8482 8.72622C24.9161 8.77219 24.9962 8.79677 25.0782 8.79679H34.9219C35.0039 8.79677 35.084 8.77219 35.1519 8.72621C35.2198 8.68023 35.2723 8.61496 35.3028 8.53883L36.9707 5.25758C37.0058 5.16987 37.0095 5.07277 36.9812 4.98266C36.9529 4.89255 36.8945 4.81496 36.8156 4.76296ZM31.8104 12.0779H33.1825L32.9091 9.61699H27.0912L26.8177 12.0779H28.1896C28.4716 11.8128 29.1625 11.2576 30 11.2576C30.8375 11.2576 31.5285 11.8128 31.8105 12.0779H31.8104ZM30.8203 16.1795C31.8067 16.1795 32.7593 15.8508 33.5366 15.2648L33.2737 12.8982H31.6406C31.5832 12.8981 31.5263 12.886 31.4738 12.8626C31.4213 12.8392 31.3743 12.8051 31.3358 12.7625C31.3298 12.7556 30.707 12.0779 30 12.0779C29.2971 12.0779 28.671 12.7549 28.665 12.7616C28.6265 12.8046 28.5794 12.839 28.5267 12.8625C28.4741 12.8861 28.4171 12.8982 28.3594 12.8982H26.7264L26.4634 15.2648C27.2406 15.8508 28.1931 16.1795 29.1797 16.1795H30.8203ZM34.9218 17.0271H36.5897C36.7144 17.0271 36.8317 16.9707 36.9097 16.8737C36.9481 16.8258 36.9753 16.7698 36.9892 16.71C37.0031 16.6502 37.0035 16.588 36.9903 16.528L35.4333 9.61699H33.7343L34.5141 16.6622C34.5373 16.8701 34.7127 17.0271 34.9218 17.0271ZM25.4859 16.6623L26.2657 9.6171H24.5667L23.0097 16.528C22.9965 16.588 22.9968 16.6502 23.0107 16.71C23.0247 16.7698 23.0518 16.8258 23.0901 16.8738C23.1286 16.9216 23.1774 16.9603 23.2327 16.9868C23.2881 17.0134 23.3487 17.0271 23.4102 17.0272H25.0781C25.2872 17.0272 25.4627 16.8701 25.4859 16.6623Z" fill="black"/>
<path d="M29.5898 3.02734C29.3633 3.02734 29.1796 3.21096 29.1796 3.4375V6.33594H30.8203V3.4375C30.8203 3.21096 30.6366 3.02734 30.4101 3.02734H29.5898ZM25.9272 5.85529L26.4079 6.33594H28.3593V3.97658C27.3024 4.22106 26.4221 4.91759 25.9272 5.85529ZM31.6406 6.33594H33.5919L34.0726 5.85529C33.5778 4.91759 32.6974 4.22106 31.6406 3.97658V6.33594Z" fill="black"/>
</g>
<defs>
<linearGradient id="paint0_linear_113_438" x1="45" y1="10" x2="202" y2="10" gradientUnits="userSpaceOnUse">
<stop offset="0.047008"/>
<stop offset="0.692332" stop-color="white"/>
<stop offset="0.922938" stop-color="white"/>
</linearGradient>
<clipPath id="clip0_113_438">
<rect width="14" height="14" fill="white" transform="translate(23 3)"/>
</clipPath>
</defs>
</svg>
